<svg xmlns="http://www.w3.org/2000/svg" version="1.1" xmlns:xlink="http://www.w3.org/1999/xlink" xmlns:svgjs="http://svgjs.dev/svgjs" width="2000" height="1500" viewBox="0 0 2000 1500"><rect width="2000" height="1500" fill="#000000"></rect><g transform="matrix(0.75,0,0,0.75,249.090909090909,537.5044530762998)"><svg viewBox="0 0 396 112" data-background-color="#77d4fc" preserveAspectRatio="xMidYMid meet" height="565" width="2000" xmlns="http://www.w3.org/2000/svg" xmlns:xlink="http://www.w3.org/1999/xlink"><g id="tight-bounds" transform="matrix(1,0,0,1,0.2400000000000091,0.16401476213434307)"><svg viewBox="0 0 395.52 111.6719704757313" height="111.6719704757313" width="395.52"><g><svg viewBox="0 0 395.52 111.6719704757313" height="111.6719704757313" width="395.52"><g><svg viewBox="0 0 597.375877037291 168.66439447669515" height="111.6719704757313" width="395.52"><g transform="matrix(1,0,0,1,201.85587703729107,49.183047641823684)"><svg viewBox="0 0 395.52 70.29829919304778" height="70.29829919304778" width="395.52"><g id="textblocktransform"><svg viewBox="0 0 395.52 70.29829919304778" height="70.29829919304778" width="395.52" id="textblock"><g><svg viewBox="0 0 395.52 70.29829919304778" height="70.29829919304778" width="395.52"><g transform="matrix(1,0,0,1,0,0)"><svg width="395.52" viewBox="3.6 -31.7 241.63 42.95" height="70.29829919304778" data-palette-color="#ffffff"><path d="M32.45-31.6Q33.15-31.6 34.18-30.68 35.2-29.75 35.2-29.1L35.2-29.1Q35.2-26.05 35-20.75L35-20.75Q34.95-19.45 34.9-17.63 34.85-15.8 34.85-13.4L34.85-13.4Q34.85-5.8 35.75-2.2L35.75-2.2Q35.7-1 34.8-0.48 33.9 0.05 33 0.05L33 0.05Q31 0.05 30.38-1.35 29.75-2.75 29.75-5.35L29.75-5.35Q29.75-15 29.95-23.1L29.95-23.1Q24.2-16.7 21-12.35L21-12.35Q21-12.35 20.1-11.75L20.1-11.75Q19.25-11 18.7-11L18.7-11Q17.4-11 16.55-11.65 15.7-12.3 14.9-13.55L14.9-13.55 12.5-16.95Q10-20.45 8.85-22.25L8.85-22.25Q8.85-17.65 9.3-9.75L9.3-9.75Q9.65-5.2 9.65-2.9L9.65-2.9Q9.65-1.7 9.05-0.88 8.45-0.05 7.15-0.05L7.15-0.05Q5.85-0.05 5.03-0.55 4.2-1.05 4.15-2.05L4.15-2.05Q4.2-2.9 4.2-4.85L4.2-4.85Q4.2-8.75 3.95-14.35L3.95-14.35 3.85-17.05 3.75-20.55Q3.7-22.1 3.65-24.18 3.6-26.25 3.6-28.7L3.6-28.7Q3.6-31.7 6.85-31.7L6.85-31.7Q7.85-31.7 8.88-31.2 9.9-30.7 10.4-29.75L10.4-29.75Q10.8-28 13.35-23.95 15.9-19.9 18.35-16.35L18.35-16.35Q20.55-19.15 21.95-20.55L21.95-20.55Q24.35-23 25.93-25.1 27.5-27.2 29.35-30.15L29.35-30.15Q29.8-30.75 30.65-31.18 31.5-31.6 32.45-31.6L32.45-31.6ZM61.75-16.05Q62.15-15.35 62.4-14.03 62.65-12.7 62.65-11.65L62.65-11.65Q62.65-9.7 61.8-6.1L61.8-6.1Q58.35 0.2 51.6 0.2L51.6 0.2Q49.1 0.2 46.5-1.45 43.9-3.1 42.9-5.25L42.9-5.25Q41.55-9.55 41.55-10.7L41.55-10.7Q41.55-12.7 42.42-14.95 43.3-17.2 44.65-18.85L44.65-18.85Q45.5-20 47.7-20.83 49.9-21.65 51.7-21.65L51.7-21.65Q55.2-21.65 57.65-20.33 60.1-19 61.75-16.05L61.75-16.05ZM57.4-8Q57.65-8.65 57.65-11.35L57.65-11.35Q57.65-12.8 57.12-14.2 56.6-15.6 55.6-16.6L55.6-16.6Q55.5-16.7 55.05-16.93 54.6-17.15 53.82-17.38 53.05-17.6 52.05-17.6L52.05-17.6Q49.25-17.6 47.95-15.35 46.65-13.1 46.65-10.25L46.65-10.25Q46.65-9.75 46.92-8.35 47.2-6.95 47.4-6.6L47.4-6.6Q47.55-6.25 48.17-5.63 48.8-5 49.72-4.53 50.65-4.05 51.65-4.05L51.65-4.05Q53.9-4.05 55.25-5.13 56.6-6.2 57.4-8L57.4-8ZM99.1-1.75Q98.35-3.15 98.15-4.88 97.95-6.6 97.95-9.65L97.95-9.65Q97.95-12.55 97.15-14.7 96.35-16.85 93.85-16.85L93.85-16.85Q92.9-16.85 91.97-16.28 91.05-15.7 90.6-14.85L90.6-14.85Q89.9-13.5 89.65-11.93 89.4-10.35 89.4-8.3L89.4-8.3Q89.4-7 89.55-5.65L89.55-5.65Q89.55-5.25 89.62-4.38 89.7-3.5 89.7-2.8L89.7-2.8Q89.7 0.2 87.6 0.2L87.6 0.2Q84.85 0.2 84.7-2.7L84.7-2.7Q84.7-4.75 84.75-4.9L84.75-4.9 84.75-7.05Q84.75-8.85 84.6-10.55 84.45-12.25 84.25-13.1L84.25-13.1Q83.8-14.75 83.07-15.65 82.35-16.55 80.8-16.55L80.8-16.55Q78.6-16.55 77.25-14.65L77.25-14.65Q76.3-13.15 76-11L76-11Q75.7-8.25 75.57-6.68 75.45-5.1 75.45-3.05L75.45-3.05Q75.45-1.6 74.97-0.7 74.5 0.2 73.2 0.2L73.2 0.2Q72.25 0.2 71.22-0.33 70.2-0.85 70.2-1.75L70.2-1.75Q70.2-2.7 70.4-3.65L70.4-3.65Q70.85-6.5 70.85-13.85L70.85-13.85Q70.85-15.05 70.27-16.18 69.7-17.3 68.9-17.3L68.9-17.3Q68.7-17.3 68.17-17.1 67.65-16.9 67.4-16.9L67.4-16.9Q66.75-16.9 66.22-17.5 65.7-18.1 65.7-18.5L65.7-18.5Q65.7-19.75 66.92-20.63 68.15-21.5 69.5-21.5L69.5-21.5Q71.35-21.5 72.65-20.35 73.95-19.2 74.65-17.15L74.65-17.15Q75.8-19.15 77.75-20.38 79.7-21.6 82.1-21.6L82.1-21.6Q83.6-21.6 84.52-21.23 85.45-20.85 86.05-20.18 86.65-19.5 87.6-18.15L87.6-18.15Q88.85-19.75 90.82-20.65 92.8-21.55 94.9-21.55L94.9-21.55Q97.4-21.55 99.4-19.53 101.4-17.5 102.1-14.85L102.1-14.85Q102.45-13.5 102.45-9.65L102.45-9.65 102.65-6.75Q102.9-4.15 104.35-3.6L104.35-3.6Q106.05-3.1 106.05-2.55L106.05-2.55Q106.05-1.35 105.45-0.8L105.45-0.8Q105-0.5 104.2-0.15 103.4 0.2 102.95 0.2L102.95 0.2Q100.25 0.2 99.1-1.75L99.1-1.75ZM129.39-16.05Q129.79-15.35 130.04-14.03 130.29-12.7 130.29-11.65L130.29-11.65Q130.29-9.7 129.44-6.1L129.44-6.1Q125.99 0.2 119.24 0.2L119.24 0.2Q116.74 0.2 114.14-1.45 111.54-3.1 110.54-5.25L110.54-5.25Q109.19-9.55 109.19-10.7L109.19-10.7Q109.19-12.7 110.07-14.95 110.94-17.2 112.29-18.85L112.29-18.85Q113.14-20 115.34-20.83 117.54-21.65 119.34-21.65L119.34-21.65Q122.84-21.65 125.29-20.33 127.74-19 129.39-16.05L129.39-16.05ZM125.04-8Q125.29-8.65 125.29-11.35L125.29-11.35Q125.29-12.8 124.77-14.2 124.24-15.6 123.24-16.6L123.24-16.6Q123.14-16.7 122.69-16.93 122.24-17.15 121.47-17.38 120.69-17.6 119.69-17.6L119.69-17.6Q116.89-17.6 115.59-15.35 114.29-13.1 114.29-10.25L114.29-10.25Q114.29-9.75 114.57-8.35 114.84-6.95 115.04-6.6L115.04-6.6Q115.19-6.25 115.82-5.63 116.44-5 117.37-4.53 118.29-4.05 119.29-4.05L119.29-4.05Q121.54-4.05 122.89-5.13 124.24-6.2 125.04-8L125.04-8ZM153.24-0.1Q154.59 0.85 155.07 2 155.54 3.15 155.54 5.2L155.54 5.2Q155.54 6.2 154.97 7.2 154.39 8.2 153.79 8.65L153.79 8.65Q149.04 11.25 144.29 11.25L144.29 11.25Q141.94 11.25 140.24 10.65 138.54 10.05 137.04 9.05L137.04 9.05Q136.04 8.3 135.42 6.98 134.79 5.65 134.79 4.35L134.79 4.35Q134.79 2.55 135.92 1.2 137.04-0.15 138.94-0.75L138.94-0.75Q138.59-1.5 138.59-2.5L138.59-2.5Q138.59-3.45 139.99-5.35L139.99-5.35Q137.59-6.15 136.22-8.2 134.84-10.25 134.84-13L134.84-13Q134.84-14.7 135.64-16.03 136.44-17.35 138.04-19.1L138.04-19.1Q139.14-20.3 140.84-20.85 142.54-21.4 145.09-21.4L145.09-21.4Q146.89-21.4 149.54-20.6L149.54-20.6Q152.69-22.8 155.09-22.8L155.09-22.8Q155.69-22.8 156.47-22.5 157.24-22.2 157.64-21.9L157.64-21.9Q157.94-21.35 157.94-20.05L157.94-20.05Q157.94-19.55 157.52-19.07 157.09-18.6 156.44-18.6L156.44-18.6 155.24-18.65Q154.34-18.75 153.84-18.75L153.84-18.75Q153.29-18.75 152.19-18.65L152.19-18.65Q153.24-17.4 153.82-16 154.39-14.6 154.39-12.35L154.39-12.35Q154.39-10.65 153.14-8.8 151.89-6.95 150.19-5.9L150.19-5.9Q147.59-4.5 144.14-4.45L144.14-4.45Q143.74-4.05 143.47-3.73 143.19-3.4 143.19-3.2L143.19-3.2Q143.19-2.65 144.14-2.35 145.09-2.05 147.04-1.9L147.04-1.9Q148.54-1.8 150.37-1.28 152.19-0.75 153.24-0.1L153.24-0.1ZM144.44-8.55Q146.74-8.55 148.14-9.8 149.54-11.05 149.54-13.35L149.54-13.35Q149.54-15.1 148.29-16.2 147.04-17.3 145.09-17.3L145.09-17.3Q143.84-17.3 142.42-16.88 140.99-16.45 140.39-15.55L140.39-15.55Q140.09-15.15 139.79-14.03 139.49-12.9 139.49-12.3L139.49-12.3Q139.49-11.45 140.22-10.58 140.94-9.7 142.12-9.13 143.29-8.55 144.44-8.55L144.44-8.55ZM147.59 2.3Q144.84 2.05 143.72 1.83 142.59 1.6 141.89 1.3L141.89 1.3Q139.34 2.65 139.34 4.25L139.34 4.25Q139.34 5.75 140.89 6.53 142.44 7.3 144.44 7.3L144.44 7.3Q145.34 7.3 146.89 7.1 148.44 6.9 149.49 6.4L149.49 6.4Q150.19 6.05 150.54 5.73 150.89 5.4 150.89 4.55L150.89 4.55Q150.89 3.5 149.79 2.95 148.69 2.4 147.59 2.3L147.59 2.3ZM168.24-2Q168.24-1.15 167.59-0.5 166.94 0.15 165.99 0.15L165.99 0.15Q164.49 0.15 163.79-0.43 163.09-1 163.09-2.55L163.09-2.55Q163.09-4.4 162.99-7.4L162.99-7.4Q162.89-9.9 162.89-11.6L162.89-11.6Q162.89-12.4 162.99-13.7L162.99-13.7Q163.09-14.9 163.09-15.5L163.09-15.5Q162.94-16.45 162.34-17.07 161.74-17.7 160.79-17.7L160.79-17.7Q160.34-17.7 160.04-18.13 159.74-18.55 159.74-19L159.74-19Q159.74-20.15 160.66-20.75 161.59-21.35 162.89-21.35L162.89-21.35Q165.59-21.35 166.64-18.15L166.64-18.15Q167.94-19.65 169.61-20.58 171.29-21.5 172.84-21.5L172.84-21.5Q174.69-21.5 176.21-20.5 177.74-19.5 177.74-17.8L177.74-17.8Q177.74-16.85 176.91-15.85 176.09-14.85 175.24-14.85L175.24-14.85Q174.79-14.85 174.46-15.08 174.14-15.3 173.69-15.75L173.69-15.75Q173.19-16.25 172.84-16.48 172.49-16.7 172.04-16.7L172.04-16.7Q171.24-16.7 170.54-16.45 169.84-16.2 169.59-15.85L169.59-15.85Q168.79-14.6 168.41-13.6 168.04-12.6 168.04-11.45L168.04-11.45Q168.04-10.6 167.99-10.1L167.99-10.1 167.94-7.25Q167.94-6.6 167.99-5.8 168.04-5 168.09-4.6L168.09-4.6Q168.24-3.25 168.24-2L168.24-2ZM203.44-2.4Q203.44-1.3 202.26-0.55 201.09 0.2 200.09 0.2L200.09 0.2Q198.19 0.2 197.06-0.28 195.94-0.75 194.99-2.05L194.99-2.05Q193.69-0.9 191.44-0.33 189.19 0.25 187.29 0.25L187.29 0.25Q184.19 0.25 182.19-1.43 180.19-3.1 180.19-6.35L180.19-6.35Q180.19-7.75 180.94-8.93 181.69-10.1 182.99-11L182.99-11Q184.44-11.95 186.29-12.48 188.14-13 190.14-13L190.14-13Q191.19-13 192.64-12.6 194.09-12.2 194.89-11.75L194.89-11.75 194.89-12.55Q194.89-15.25 193.59-16.28 192.29-17.3 189.39-17.3L189.39-17.3Q188.54-17.3 187.71-16.95 186.89-16.6 185.84-16L185.84-16Q184.44-15.25 183.19-15.25L183.19-15.25Q182.74-15.25 182.34-15.88 181.94-16.5 181.94-17L181.94-17Q181.94-18.45 183.31-19.5 184.69-20.55 186.59-21.08 188.49-21.6 189.99-21.6L189.99-21.6Q191.49-21.6 193.44-21.03 195.39-20.45 196.64-19.45L196.64-19.45Q198.14-18.15 198.96-16.43 199.79-14.7 199.79-12.65L199.79-12.65Q199.79-12 199.69-10.7L199.69-10.7Q199.59-9.3 199.59-8.3L199.59-8.3Q199.59-7.85 199.49-6.95L199.49-6.95Q199.39-5.85 199.39-5.2L199.39-5.2Q199.39-4.6 199.84-4.17 200.29-3.75 200.89-3.75L200.89-3.75 202.29-3.8Q202.84-3.8 203.14-3.4 203.44-3 203.44-2.4L203.44-2.4ZM187.34-3.7Q189.49-3.7 190.94-4.15 192.39-4.6 194.44-5.8L194.44-5.8Q194.64-6.65 194.69-8.05L194.69-8.05Q191.94-9.35 190.14-9.35L190.14-9.35Q188.09-9.35 186.49-8.6 184.89-7.85 184.89-5.95L184.89-5.95Q184.89-5 185.69-4.35 186.49-3.7 187.34-3.7L187.34-3.7ZM238.28-1.75Q237.53-3.15 237.33-4.88 237.13-6.6 237.13-9.65L237.13-9.65Q237.13-12.55 236.33-14.7 235.53-16.85 233.03-16.85L233.03-16.85Q232.08-16.85 231.16-16.28 230.23-15.7 229.78-14.85L229.78-14.85Q229.08-13.5 228.83-11.93 228.58-10.35 228.58-8.3L228.58-8.3Q228.58-7 228.73-5.65L228.73-5.65Q228.73-5.25 228.81-4.38 228.88-3.5 228.88-2.8L228.88-2.8Q228.88 0.2 226.78 0.2L226.78 0.2Q224.03 0.2 223.88-2.7L223.88-2.7Q223.88-4.75 223.93-4.9L223.93-4.9 223.93-7.05Q223.93-8.85 223.78-10.55 223.63-12.25 223.43-13.1L223.43-13.1Q222.98-14.75 222.26-15.65 221.53-16.55 219.98-16.55L219.98-16.55Q217.78-16.55 216.43-14.65L216.43-14.65Q215.48-13.15 215.18-11L215.18-11Q214.88-8.25 214.76-6.68 214.63-5.1 214.63-3.05L214.63-3.05Q214.63-1.6 214.16-0.7 213.68 0.2 212.38 0.2L212.38 0.2Q211.43 0.2 210.41-0.33 209.38-0.85 209.38-1.75L209.38-1.75Q209.38-2.7 209.58-3.65L209.58-3.65Q210.03-6.5 210.03-13.85L210.03-13.85Q210.03-15.05 209.46-16.18 208.88-17.3 208.08-17.3L208.08-17.3Q207.88-17.3 207.36-17.1 206.83-16.9 206.58-16.9L206.58-16.9Q205.93-16.9 205.41-17.5 204.88-18.1 204.88-18.5L204.88-18.5Q204.88-19.75 206.11-20.63 207.33-21.5 208.68-21.5L208.68-21.5Q210.53-21.5 211.83-20.35 213.13-19.2 213.83-17.15L213.83-17.15Q214.98-19.15 216.93-20.38 218.88-21.6 221.28-21.6L221.28-21.6Q222.78-21.6 223.71-21.23 224.63-20.85 225.23-20.18 225.83-19.5 226.78-18.15L226.78-18.15Q228.03-19.75 230.01-20.65 231.98-21.55 234.08-21.55L234.08-21.55Q236.58-21.55 238.58-19.53 240.58-17.5 241.28-14.85L241.28-14.85Q241.63-13.5 241.63-9.65L241.63-9.65 241.83-6.75Q242.08-4.15 243.53-3.6L243.53-3.6Q245.23-3.1 245.23-2.55L245.23-2.55Q245.23-1.35 244.63-0.8L244.63-0.8Q244.18-0.5 243.38-0.15 242.58 0.2 242.13 0.2L242.13 0.2Q239.43 0.2 238.28-1.75L238.28-1.75Z" opacity="1" transform="matrix(1,0,0,1,0,0)" fill="#ffffff" class="wordmark-text-0" data-fill-palette-color="primary" id="text-0"></path></svg></g></svg></g></svg></g></svg></g><g><svg viewBox="0 0 168.66439447669515 168.66439447669515" height="168.66439447669515" width="168.66439447669515"><g><svg></svg></g><g id="icon-0"><svg viewBox="0 0 168.66439447669515 168.66439447669515" height="168.66439447669515" width="168.66439447669515"><g><path d="M0 84.332c0-46.575 37.757-84.332 84.332-84.332 46.575 0 84.332 37.757 84.332 84.332 0 46.575-37.757 84.332-84.332 84.332-46.575 0-84.332-37.757-84.332-84.332zM84.332 162.325c43.074 0 77.993-34.918 77.993-77.993 0-43.074-34.918-77.993-77.993-77.992-43.074 0-77.993 34.918-77.992 77.992 0 43.074 34.918 77.993 77.992 77.993z" data-fill-palette-color="accent" fill="#ffffff" stroke="transparent"></path></g><g transform="matrix(1,0,0,1,38.176872526487905,37.82503748596347)"><svg viewBox="0 0 92.31064942371934 93.01431950476821" height="93.01431950476821" width="92.31064942371934"><g><svg xmlns="http://www.w3.org/2000/svg" xmlns:xlink="http://www.w3.org/1999/xlink" version="1.1" x="0" y="0" viewBox="0.6131190508381619 0.5048568109758029 46.72784094916182 47.084040194137415" enable-background="new 0 0 48 48" xml:space="preserve" height="93.01431950476821" width="92.31064942371934" class="icon-cg-0" data-fill-palette-color="accent" id="cg-0"><g fill="#b10dc9" data-fill-palette-color="accent"><g fill="#b10dc9" data-fill-palette-color="accent"><g fill="#b10dc9" data-fill-palette-color="accent"><path fill="#ffffff" d="M27 25.1c7.4-2.9 10.7-10.4 5.3-17.3-6.2-8-16.9-9.4-25.4-4.3C-0.4 8-1.4 16.8 4.2 22.9c2.8 3.1 7.2 4.2 11.1 4.4 6.6 0.4 13.4 3.1 19.8 4.8 0.6 0.2 1-0.6 0.6-1-2.6-3-5.5-5.4-8.9-7.4-0.7-0.4-1.3 0.7-0.6 1.1 3.3 1.9 6.2 4.3 8.7 7.2 0.2-0.3 0.4-0.7 0.6-1-5.5-1.5-10.9-3.1-16.3-4.7-3.5-1.1-7-0.2-10.6-1.8C3.5 22.3 1.1 17 1.9 11.9 3.2 3.2 15.3 0.8 22.1 2.4c10.4 2.4 16.8 16.8 4.6 21.6C25.9 24.2 26.3 25.4 27 25.1L27 25.1z" data-fill-palette-color="accent"></path></g></g><g fill="#b10dc9" data-fill-palette-color="accent"><g fill="#b10dc9" data-fill-palette-color="accent"><path fill="#ffffff" d="M33.6 11.8c3-0.1 5.9 0 8.9 0.2 4 0.3 3.1 10.1 3.2 12.7C45.8 28 48 45.8 43 45.9c-6.9 0.1-13.8 0.1-20.6-0.1-4.9-0.1-4.5-3.9-4.6-7.7-0.2-3.7 0-7.4 0.3-11 0.1-0.8-1.2-0.8-1.3 0-0.4 5.5-0.4 11 0.1 16.5 0.1 1.4-0.1 3.2 1.8 3.3 5.6 0.2 11.2 0.3 16.9 0.3 2.1 0 8.8 1.1 10.4-0.4 1.7-1.7 1.3-6.3 1.3-8.4 0-5.9-0.2-11.7-0.5-17.6-0.1-1.6 0.6-8.3-1.1-9.3-3.2-1.8-8.6-1.1-12.1-1C32.8 10.6 32.8 11.8 33.6 11.8L33.6 11.8z" data-fill-palette-color="accent"></path></g></g><g fill="#b10dc9" data-fill-palette-color="accent"><g fill="#b10dc9" data-fill-palette-color="accent"><path fill="#ffffff" d="M20.3 28.3c0.1 3.7 0.3 7.3 0.7 10.9 0 0.4 0.3 0.6 0.6 0.6 6.2 0.5 12.4 0.7 18.7 0.6 2.9 0 1.9-3.7 1.9-5.6-0.1-3.2-0.1-6.4-0.2-9.5 0-3 0.5-6.8-0.2-9.7-0.6-2.6-5.9-1.3-7.8-1.3-0.8 0-0.8 1.3 0 1.3 1.6 0 3.1 0 4.7 0 2.9 0 2 6.4 2 7.9 0 1.6 1 15.6-0.5 15.8-4.2 0.5-8.8 0-13.1-0.2-3-0.1-5 0.1-5.4-3.4-0.2-2.4-0.3-4.9-0.3-7.3C21.5 27.5 20.3 27.5 20.3 28.3L20.3 28.3z" data-fill-palette-color="accent"></path></g></g><g fill="#b10dc9" data-fill-palette-color="accent"><g fill="#b10dc9" data-fill-palette-color="accent"><path fill="#ffffff" d="M29.4 43.3c0.8 0 1.6 0 2.3 0.1 0.8 0.1 0.8-1.2 0-1.3C31 42 30.2 42 29.4 42 28.6 42.1 28.6 43.3 29.4 43.3L29.4 43.3z" data-fill-palette-color="accent"></path></g></g></g></svg></g></svg></g></svg></g></svg></g></svg></g></svg></g><defs></defs></svg><rect width="395.52" height="111.6719704757313" fill="none" stroke="none" visibility="hidden"></rect></g></svg></g></svg>